<svg id="_0" data-name="0" xmlns="http://www.w3.org/2000/svg" viewBox="0 0 200.87 184.2"><defs><style>.cls-1{fill:#ba9d83;}.cls-2{fill:#595959;}.cls-3{fill:#ceb08d;}.cls-4{fill:#b2967f;}.cls-5{fill:#9b8272;}.cls-6{fill:#a58a77;}.cls-7{fill:#f4f4f4;}.cls-8{fill:#a5a5a5;}.cls-9{fill:#adadad;}.cls-10{fill:#c1a385;}.cls-11{fill:#727272;}.cls-12{fill:#939393;}.cls-13,.cls-14{fill:none;stroke:#000;stroke-width:0.25px;}.cls-13{stroke-linecap:round;stroke-linejoin:round;}.cls-14{stroke-miterlimit:10;stroke-dasharray:2 2;}.cls-15{font-size:8px;font-family:MyriadPro-Regular, Myriad Pro;}.cls-16{letter-spacing:0.02em;}.cls-17{letter-spacing:-0.01em;}.cls-18{letter-spacing:0em;}.cls-19{letter-spacing:-0.01em;}.cls-20{letter-spacing:-0.01em;}.cls-21{letter-spacing:0em;}.cls-22{letter-spacing:-0.01em;}</style></defs><title>Artboard 1</title><g id="LINE"><polygon class="cls-1" points="126.09 62.16 126.09 134.94 94.88 152.96 94.88 80.18 126.09 62.16"/><path class="cls-2" d="M102.19,34.34v1.19a.47.47,0,0,1-.29.4V34.72A.5.5,0,0,0,102.19,34.34Z"/><polygon class="cls-2" points="101.9 34.72 101.9 35.93 91.28 42.06 85.79 45.23 85.79 44.02 101.9 34.72"/><polygon class="cls-3" points="94.88 80.18 94.88 152.96 90.46 174 90.46 101.22 94.88 80.18"/><polygon class="cls-4" points="93.7 79.85 93.47 80.72 93.4 80.97 75.32 83.81 68.72 84.85 69.02 83.73 93.7 79.85"/><polygon class="cls-3" points="93.7 79.85 69.02 83.73 20 55.42 44.68 51.55 93.7 79.85"/><polygon class="cls-4" points="93.51 80.75 93.7 79.85 94.58 80.35 94.88 80.18 90.46 101.22 89.23 101.14 93.51 80.75"/><polygon class="cls-5" points="93.4 80.97 93.47 80.72 93.51 80.75 89.23 101.14 89.23 113.66 75.32 105.63 75.32 83.81 93.4 80.97"/><polygon class="cls-4" points="90.46 101.22 90.46 174 89.23 173.92 89.23 155.21 89.23 154.2 89.23 149.04 89.23 147.28 89.23 147.26 89.23 134.72 89.23 133.51 89.23 133.15 89.23 132.95 89.23 131.35 89.23 129.25 89.23 128.53 89.23 128 89.23 127.72 89.23 127.19 89.23 126.47 89.23 125.94 89.23 125.66 89.23 125.13 89.23 124.42 89.23 123.88 89.23 123.6 89.23 123.08 89.23 122.36 89.23 121.58 89.23 114.92 89.23 113.66 89.23 101.14 90.46 101.22"/><polygon class="cls-4" points="89.23 154.2 89.23 155.21 67.44 167.79 67.44 166.78 89.23 154.2"/><polygon class="cls-4" points="89.23 149.04 89.23 154.2 67.44 166.78 18.41 138.48 42.28 124.69 44.68 123.31 89.23 149.04"/><polygon class="cls-6" points="89.23 147.28 89.23 149.04 44.68 123.31 75.32 105.63 89.23 113.66 89.23 114.92 79.82 109.48 51.8 125.65 51.8 125.66 89.23 147.28"/><polygon class="cls-7" points="89.23 134.72 89.23 147.26 51.8 125.65 79.82 109.48 89.23 114.92 89.23 121.58 81.38 117.05 78.93 117.05 69.71 122.37 69.71 123.79 69.71 124.46 68.4 125.22 68.4 126.43 85.99 136.59 89.23 134.72"/><polygon class="cls-8" points="89.23 133.51 89.23 134.72 85.99 136.59 85.99 135.38 89.23 133.51"/><polygon class="cls-8" points="89.23 131.35 89.23 132.95 86.02 134.8 86.02 133.2 89.23 131.35"/><path class="cls-9" d="M89.23,128.53v.72l-.08.05-.1,0a1.57,1.57,0,0,1-1.34,0l-.08-.05c-.34-.26-.26-.62.18-.82A1.57,1.57,0,0,1,89.23,128.53Z"/><path class="cls-9" d="M89.23,126.47v.72l-.08,0a.31.31,0,0,1-.1.05,1.57,1.57,0,0,1-1.34-.05l-.08,0c-.34-.25-.26-.62.18-.82A1.57,1.57,0,0,1,89.23,126.47Z"/><path class="cls-9" d="M89.23,124.41v.72l-.08.06-.1,0a1.61,1.61,0,0,1-1.34-.06l-.08-.05c-.34-.25-.26-.62.18-.82A1.57,1.57,0,0,1,89.23,124.41Z"/><path class="cls-9" d="M89.23,122.36v.71l-.08.06-.1.05a1.64,1.64,0,0,1-1.34-.05l-.08-.06c-.34-.25-.26-.62.18-.82A1.57,1.57,0,0,1,89.23,122.36Z"/><polygon class="cls-4" points="88.37 56.4 87.5 56.9 84.87 55.38 84.87 54.37 88.37 56.4"/><ellipse class="cls-9" cx="86.65" cy="121.69" rx="1.01" ry="0.59"/><path class="cls-9" d="M87.37,123.33a.44.44,0,0,1,0,.83,1.61,1.61,0,0,1-1.36,0l-.08,0a.44.44,0,0,1,0-.83,1.62,1.62,0,0,1,1.28-.07Z"/><path class="cls-9" d="M87.37,125.39a.44.44,0,0,1,0,.83,1.65,1.65,0,0,1-1.36,0l-.08,0a.44.44,0,0,1,0-.83l.08,0a1.66,1.66,0,0,1,1.2,0Z"/><path class="cls-9" d="M87.37,127.45a.44.44,0,0,1,0,.83,1.65,1.65,0,0,1-1.36,0l-.08,0a.44.44,0,0,1,0-.83l.08,0a1.61,1.61,0,0,1,1.2,0Z"/><polygon class="cls-5" points="87.5 56.9 84.87 58.42 82.24 56.9 84.87 55.38 87.5 56.9"/><path class="cls-9" d="M87.37,129.51a.43.43,0,0,1,0,.82,1.59,1.59,0,0,1-1.44,0,.43.43,0,0,1,0-.82l.08,0a1.61,1.61,0,0,1,1.2,0Z"/><path class="cls-8" d="M89.15,123.13l.08-.06v.53a.34.34,0,0,0,0,.28v.53a1.57,1.57,0,0,0-1.42-.1c-.44.2-.52.57-.18.82l.08.05-.5.13a1.66,1.66,0,0,0-1.2,0l-.5-.12.07,0a.44.44,0,0,0,0-.83l-.07,0,.5-.12a1.61,1.61,0,0,0,1.36,0,.44.44,0,0,0,0-.83l-.16-.07.5-.13a1.64,1.64,0,0,0,1.34.05Z"/><path class="cls-8" d="M89.15,125.19l.08-.06v.53a.34.34,0,0,0,0,.28v.53a1.57,1.57,0,0,0-1.42-.1c-.44.2-.52.57-.18.82l.08,0-.5.13a1.61,1.61,0,0,0-1.2,0l-.5-.12.07-.05c.4-.22.4-.59,0-.82l-.07,0,.5-.12a1.65,1.65,0,0,0,1.36,0,.44.44,0,0,0,0-.83l-.16-.08.5-.13a1.61,1.61,0,0,0,1.34.06Z"/><path class="cls-8" d="M89.15,127.24l.08,0v.53a.34.34,0,0,0,0,.28v.53a1.57,1.57,0,0,0-1.42-.1c-.44.2-.52.56-.18.82l.08.05-.5.13a1.61,1.61,0,0,0-1.2,0l-.5-.13.07,0c.4-.23.4-.6,0-.82l-.07,0,.5-.12a1.65,1.65,0,0,0,1.36,0,.44.44,0,0,0,0-.83l-.16-.08.5-.13a1.57,1.57,0,0,0,1.34.05A.31.31,0,0,0,89.15,127.24Z"/><polygon class="cls-8" points="85.99 135.38 85.99 136.59 68.4 126.43 68.4 125.22 85.99 135.38"/><polygon class="cls-8" points="85.96 134.76 70.08 125.6 69.71 125.38 69.71 124.46 69.71 123.79 86.02 133.2 86.02 134.8 85.96 134.76"/><path class="cls-2" d="M84.39,44a1.57,1.57,0,0,0,1.4,0v1.21a1.51,1.51,0,0,1-1.4,0Z"/><ellipse class="cls-9" cx="84.87" cy="120.66" rx="1.01" ry="0.59"/><ellipse class="cls-9" cx="84.87" cy="122.72" rx="1.01" ry="0.59"/><path class="cls-9" d="M85.58,124.36a.44.44,0,0,1,0,.83l-.07,0a1.65,1.65,0,0,1-1.36,0,.44.44,0,0,1,0-.83,1.61,1.61,0,0,1,1.36,0Z"/><path class="cls-9" d="M85.58,126.42c.4.23.4.6,0,.82l-.07.05a1.62,1.62,0,0,1-1.36-.05.43.43,0,0,1,0-.82,1.58,1.58,0,0,1,1.36,0Z"/><path class="cls-9" d="M85.58,128.48c.4.22.4.59,0,.82l-.07,0a1.58,1.58,0,0,1-1.36,0,.43.43,0,0,1,0-.82,1.58,1.58,0,0,1,1.36,0Z"/><path class="cls-9" d="M85.58,130.53a.44.44,0,0,1,0,.83,1.57,1.57,0,0,1-1.43,0,.44.44,0,0,1,0-.83A1.63,1.63,0,0,1,85.58,130.53Z"/><polygon class="cls-4" points="84.87 54.37 84.87 55.38 82.24 56.9 81.37 56.4 84.87 54.37"/><path class="cls-7" d="M85.22,43.43a.78.78,0,0,1-.7,0,.27.27,0,0,1-.15-.19h0a.24.24,0,0,1,.15-.2.78.78,0,0,1,.7,0,.23.23,0,0,1,.14.2h0A.23.23,0,0,1,85.22,43.43Z"/><path class="cls-10" d="M84.39,45.23a1.51,1.51,0,0,0,1.4,0l5.49-3.17,33.94,19.59.87.51-31.21,18-.3.17-.88-.5-49-28.3L43.8,51l.23-.13h0L75.32,32.84l.87.51,6.16,3.56-4.43,2.56a.48.48,0,0,0-.29.4v1.22a.49.49,0,0,0,.29.4ZM87.5,56.9l.87-.51-3.5-2-3.5,2,.87.51,2.63,1.52Z"/><path class="cls-11" d="M84.28,43.29c0,.17.28.31.59.31a.9.9,0,0,0,.42-.1.32.32,0,0,0,.17-.22v0h0a.3.3,0,0,0-.17-.24.89.89,0,0,0-.84,0A.28.28,0,0,0,84.28,43.29Zm.11.73-6.47-3.74a.43.43,0,0,1,0-.81l4.43-2.56L94,30.17a1.57,1.57,0,0,1,1.4,0l6.48,3.74a.48.48,0,0,1,.29.43.5.5,0,0,1-.29.38L85.79,44A1.57,1.57,0,0,1,84.39,44Z"/><polygon class="cls-2" points="84.39 44.02 84.39 45.23 77.92 41.49 77.92 40.28 84.39 44.02"/><path class="cls-9" d="M83.8,119.21a.44.44,0,0,1,0,.83,1.57,1.57,0,0,1-1.43,0,.44.44,0,0,1,0-.83A1.63,1.63,0,0,1,83.8,119.21Z"/><ellipse class="cls-9" cx="83.09" cy="121.69" rx="1.01" ry="0.58"/><ellipse class="cls-9" cx="83.09" cy="123.74" rx="1.01" ry="0.58"/><ellipse class="cls-9" cx="83.09" cy="125.8" rx="1.01" ry="0.58"/><ellipse class="cls-9" cx="83.09" cy="127.86" rx="1.01" ry="0.59"/><ellipse class="cls-9" cx="83.09" cy="129.92" rx="1.01" ry="0.58"/><ellipse class="cls-9" cx="81.3" cy="118.6" rx="1.01" ry="0.58"/><ellipse class="cls-9" cx="81.3" cy="120.66" rx="1.01" ry="0.59"/><ellipse class="cls-9" cx="81.3" cy="122.72" rx="1.01" ry="0.58"/><ellipse class="cls-9" cx="81.3" cy="124.77" rx="1.01" ry="0.58"/><ellipse class="cls-9" cx="81.3" cy="126.83" rx="1.01" ry="0.58"/><path class="cls-9" d="M82,128.48c.4.22.4.59,0,.82a1.57,1.57,0,0,1-1.43,0c-.4-.23-.4-.6,0-.82A1.57,1.57,0,0,1,82,128.48Z"/><path class="cls-9" d="M80.24,119.21a.44.44,0,0,1,0,.83,1.57,1.57,0,0,1-1.43,0,.44.44,0,0,1,0-.83A1.63,1.63,0,0,1,80.24,119.21Z"/><ellipse class="cls-9" cx="79.52" cy="121.69" rx="1.01" ry="0.58"/><ellipse class="cls-9" cx="79.52" cy="123.74" rx="1.01" ry="0.58"/><ellipse class="cls-9" cx="79.52" cy="125.8" rx="1.01" ry="0.58"/><ellipse class="cls-9" cx="79.52" cy="127.86" rx="1.01" ry="0.59"/><path class="cls-9" d="M78.46,120.24a.44.44,0,0,1,0,.83,1.59,1.59,0,0,1-1.44,0,.44.44,0,0,1,0-.83A1.65,1.65,0,0,1,78.46,120.24Z"/><path class="cls-9" d="M78.46,122.3a.44.44,0,0,1,0,.83,1.59,1.59,0,0,1-1.44,0,.44.44,0,0,1,0-.83A1.59,1.59,0,0,1,78.46,122.3Z"/><path class="cls-9" d="M78.46,124.36a.44.44,0,0,1,0,.83,1.65,1.65,0,0,1-1.44,0,.44.44,0,0,1,0-.83A1.59,1.59,0,0,1,78.46,124.36Z"/><path class="cls-9" d="M78.46,126.42a.43.43,0,0,1,0,.82,1.59,1.59,0,0,1-1.44,0,.43.43,0,0,1,0-.82A1.59,1.59,0,0,1,78.46,126.42Z"/><path class="cls-2" d="M77.92,40.28v1.21a.49.49,0,0,1-.29-.4V39.87A.48.48,0,0,0,77.92,40.28Z"/><ellipse class="cls-9" cx="75.96" cy="121.69" rx="1.01" ry="0.59"/><ellipse class="cls-9" cx="75.96" cy="123.74" rx="1.01" ry="0.58"/><ellipse class="cls-9" cx="75.96" cy="125.8" rx="1.01" ry="0.59"/><polygon class="cls-6" points="75.32 83.81 75.32 105.63 44.68 123.31 44.68 70.97 68.72 84.85 75.32 83.81"/><ellipse class="cls-9" cx="74.18" cy="122.72" rx="1.01" ry="0.59"/><ellipse class="cls-9" cx="74.18" cy="124.77" rx="1.01" ry="0.58"/><path class="cls-8" d="M84.15,120.24a.44.44,0,0,0,0,.83,1.57,1.57,0,0,0,1.43,0,.44.44,0,0,0,0-.83A1.63,1.63,0,0,0,84.15,120.24Zm0,2.06a.44.44,0,0,0,0,.83,1.57,1.57,0,0,0,1.43,0,.44.44,0,0,0,0-.83A1.57,1.57,0,0,0,84.15,122.3Zm1.43,8.23a1.63,1.63,0,0,0-1.43,0,.44.44,0,0,0,0,.83,1.57,1.57,0,0,0,1.43,0A.44.44,0,0,0,85.58,130.53Zm1.79-8.43a.44.44,0,0,0,0-.83,1.59,1.59,0,0,0-1.44,0,.44.44,0,0,0,0,.83A1.59,1.59,0,0,0,87.37,122.1Zm1.68,7.25.1,0,.08-.05v2.1L86,133.2l-16.31-9.41v-1.42l9.22-5.32h2.45l7.85,4.53v.78a1.57,1.57,0,0,0-1.42-.11c-.44.2-.52.57-.18.82l.08.06-.5.13a1.62,1.62,0,0,0-1.28.07.44.44,0,0,0,0,.83l.08,0-.5.12a1.61,1.61,0,0,0-1.36,0,.44.44,0,0,0,0,.83,1.65,1.65,0,0,0,1.36,0l.5.12-.08,0a.44.44,0,0,0,0,.83l.08,0-.5.12a1.58,1.58,0,0,0-1.36,0,.43.43,0,0,0,0,.82,1.62,1.62,0,0,0,1.36.05l.5.12-.08,0a.44.44,0,0,0,0,.83l.08,0-.5.12a1.58,1.58,0,0,0-1.36,0,.43.43,0,0,0,0,.82,1.58,1.58,0,0,0,1.36,0l.5.13-.08,0a.43.43,0,0,0,0,.82,1.59,1.59,0,0,0,1.44,0,.43.43,0,0,0,0-.82l-.16-.08.5-.13A1.57,1.57,0,0,0,89.05,129.35Zm-5.25.16a1.57,1.57,0,0,0-1.43,0c-.4.22-.4.59,0,.82a1.57,1.57,0,0,0,1.43,0C84.2,130.1,84.2,129.73,83.8,129.51Zm0-2.06a1.57,1.57,0,0,0-1.43,0,.44.44,0,0,0,0,.83,1.63,1.63,0,0,0,1.43,0A.44.44,0,0,0,83.8,127.45Zm-1.43-3.29a1.57,1.57,0,0,0,1.43,0,.44.44,0,0,0,0-.83,1.57,1.57,0,0,0-1.43,0A.44.44,0,0,0,82.37,124.16Zm0-2.06a1.57,1.57,0,0,0,1.43,0,.44.44,0,0,0,0-.83,1.57,1.57,0,0,0-1.43,0A.44.44,0,0,0,82.37,122.1Zm1.43,3.29a1.57,1.57,0,0,0-1.43,0,.44.44,0,0,0,0,.83,1.63,1.63,0,0,0,1.43,0A.44.44,0,0,0,83.8,125.39ZM82.37,120a1.57,1.57,0,0,0,1.43,0,.44.44,0,0,0,0-.83,1.63,1.63,0,0,0-1.43,0A.44.44,0,0,0,82.37,120Zm-2.13,8.24a.44.44,0,0,0,0-.83,1.57,1.57,0,0,0-1.43,0,.44.44,0,0,0,0,.83A1.63,1.63,0,0,0,80.24,128.28Zm0-2.06a.44.44,0,0,0,0-.83,1.57,1.57,0,0,0-1.43,0,.44.44,0,0,0,0,.83A1.63,1.63,0,0,0,80.24,126.22Zm0-2.06a.44.44,0,0,0,0-.83,1.57,1.57,0,0,0-1.43,0,.44.44,0,0,0,0,.83A1.57,1.57,0,0,0,80.24,124.16Zm0-2.06a.44.44,0,0,0,0-.83,1.57,1.57,0,0,0-1.43,0,.44.44,0,0,0,0,.83A1.57,1.57,0,0,0,80.24,122.1Zm0-2.06a.44.44,0,0,0,0-.83,1.63,1.63,0,0,0-1.43,0,.44.44,0,0,0,0,.83A1.57,1.57,0,0,0,80.24,120ZM82,128.48a1.57,1.57,0,0,0-1.43,0c-.4.22-.4.59,0,.82a1.57,1.57,0,0,0,1.43,0C82.42,129.07,82.42,128.7,82,128.48Zm0-2.06a1.57,1.57,0,0,0-1.43,0c-.4.23-.4.6,0,.82a1.57,1.57,0,0,0,1.43,0C82.42,127,82.42,126.65,82,126.42Zm0-2.06a1.57,1.57,0,0,0-1.43,0,.44.44,0,0,0,0,.83,1.63,1.63,0,0,0,1.43,0A.44.44,0,0,0,82,124.36Zm0-2.06a1.57,1.57,0,0,0-1.43,0,.44.44,0,0,0,0,.83,1.57,1.57,0,0,0,1.43,0A.44.44,0,0,0,82,122.3Zm0-2.06a1.63,1.63,0,0,0-1.43,0,.44.44,0,0,0,0,.83,1.57,1.57,0,0,0,1.43,0A.44.44,0,0,0,82,120.24ZM80.59,119A1.57,1.57,0,0,0,82,119c.4-.23.4-.6,0-.82a1.57,1.57,0,0,0-1.43,0C80.19,118.41,80.19,118.78,80.59,119ZM77,121.07a1.59,1.59,0,0,0,1.44,0,.44.44,0,0,0,0-.83,1.65,1.65,0,0,0-1.44,0A.44.44,0,0,0,77,121.07Zm0,3.29a.44.44,0,0,0,0,.83,1.65,1.65,0,0,0,1.44,0,.44.44,0,0,0,0-.83A1.59,1.59,0,0,0,77,124.36Zm0-2.06a.44.44,0,0,0,0,.83,1.59,1.59,0,0,0,1.44,0,.44.44,0,0,0,0-.83A1.59,1.59,0,0,0,77,122.3Zm0,4.12a.43.43,0,0,0,0,.82,1.59,1.59,0,0,0,1.44,0,.43.43,0,0,0,0-.82A1.59,1.59,0,0,0,77,126.42Zm-.35-1a1.57,1.57,0,0,0-1.43,0,.44.44,0,0,0,0,.83,1.63,1.63,0,0,0,1.43,0A.44.44,0,0,0,76.67,125.39Zm-1.43-3.29a1.57,1.57,0,0,0,1.43,0,.44.44,0,0,0,0-.83,1.57,1.57,0,0,0-1.43,0A.44.44,0,0,0,75.24,122.1Zm1.43,1.23a1.57,1.57,0,0,0-1.43,0,.44.44,0,0,0,0,.83,1.57,1.57,0,0,0,1.43,0A.44.44,0,0,0,76.67,123.33Zm-3.56.83a.44.44,0,0,0,0-.83,1.57,1.57,0,0,0-1.43,0,.44.44,0,0,0,0,.83A1.57,1.57,0,0,0,73.11,124.16Zm1.78.2a1.57,1.57,0,0,0-1.43,0,.44.44,0,0,0,0,.83,1.63,1.63,0,0,0,1.43,0A.44.44,0,0,0,74.89,124.36Zm0-2.06a1.57,1.57,0,0,0-1.43,0,.44.44,0,0,0,0,.83,1.57,1.57,0,0,0,1.43,0A.44.44,0,0,0,74.89,122.3Z"/><ellipse class="cls-9" cx="72.39" cy="123.74" rx="1.01" ry="0.58"/><polygon class="cls-8" points="70.08 125.6 85.96 134.76 85.96 135.04 70.08 125.87 70.08 125.6"/><polygon class="cls-12" points="69.71 125.38 70.08 125.6 70.08 125.87 85.96 135.04 89.23 133.15 89.23 133.51 85.99 135.38 68.4 125.22 69.71 124.46 69.71 125.38"/><polygon class="cls-4" points="69.02 83.73 68.72 84.85 44.68 70.97 19.7 56.54 20 55.42 69.02 83.73"/><polygon class="cls-4" points="67.44 166.78 67.44 167.79 18.41 139.49 18.41 138.48 67.44 166.78"/><polygon class="cls-4" points="44.68 70.97 44.68 123.31 42.28 124.69 8.8 129.88 8.8 57.1 44.68 51.55 20 55.42 19.7 56.54 44.68 70.97"/><polygon class="cls-4" points="43.8 51.04 44.68 51.55 8.8 57.1 8.48 56.41 44.03 50.91 43.8 51.04"/><polygon class="cls-4" points="8.8 57.1 8.8 129.88 8.48 129.19 8.48 56.41 8.8 57.1"/><line class="cls-13" x1="89.23" y1="134.72" x2="85.99" y2="136.59"/><line class="cls-13" x1="85.99" y1="135.38" x2="89.23" y2="133.51"/><line class="cls-13" x1="85.99" y1="136.59" x2="85.99" y2="135.38"/><line class="cls-13" x1="85.99" y1="136.59" x2="68.4" y2="126.43"/><line class="cls-13" x1="68.4" y1="125.22" x2="85.99" y2="135.38"/><line class="cls-13" x1="68.4" y1="126.43" x2="68.4" y2="125.22"/><line class="cls-13" x1="69.71" y1="124.46" x2="68.4" y2="125.22"/><line class="cls-13" x1="89.23" y1="147.27" x2="51.8" y2="125.66"/><line class="cls-13" x1="51.8" y1="125.65" x2="89.23" y2="147.26"/><line class="cls-13" x1="51.8" y1="125.66" x2="51.8" y2="125.65"/><line class="cls-13" x1="79.82" y1="109.48" x2="51.8" y2="125.65"/><line class="cls-13" x1="89.23" y1="114.92" x2="79.82" y2="109.48"/><path class="cls-13" d="M85.46,43.24a.3.3,0,0,0-.17-.24.89.89,0,0,0-.84,0,.28.28,0,0,0-.17.29.31.31,0,0,0,.17.19.89.89,0,0,0,.84,0,.29.29,0,0,0,.17-.2"/><path class="cls-13" d="M85.29,43.5a.32.32,0,0,0,.17-.22v0"/><path class="cls-13" d="M84.28,43.25v0c0,.17.28.31.59.31a.9.9,0,0,0,.42-.1"/><line class="cls-13" x1="84.28" y1="43.25" x2="84.28" y2="43.24"/><line class="cls-13" x1="85.46" y1="43.25" x2="85.46" y2="43.24"/><path class="cls-13" d="M85.36,43.23a.23.23,0,0,0-.14-.2.78.78,0,0,0-.7,0,.24.24,0,0,0-.15.2"/><path class="cls-13" d="M84.37,43.24a.27.27,0,0,0,.15.19.78.78,0,0,0,.7,0,.23.23,0,0,0,.14-.19"/><line class="cls-13" x1="84.37" y1="43.24" x2="84.37" y2="43.23"/><line class="cls-13" x1="85.36" y1="43.24" x2="85.36" y2="43.23"/><path class="cls-13" d="M102.19,35.53a.47.47,0,0,1-.29.4"/><path class="cls-13" d="M101.9,34.72a.5.5,0,0,0,.29-.38.48.48,0,0,0-.29-.43"/><line class="cls-13" x1="101.9" y1="35.93" x2="101.9" y2="34.72"/><polyline class="cls-13" points="101.9 35.93 91.28 42.06 85.79 45.23"/><line class="cls-13" x1="85.79" y1="44.02" x2="101.9" y2="34.72"/><line class="cls-13" x1="85.79" y1="45.23" x2="85.79" y2="44.02"/><path class="cls-13" d="M85.79,45.23a1.51,1.51,0,0,1-1.4,0"/><path class="cls-13" d="M84.39,44a1.57,1.57,0,0,0,1.4,0"/><line class="cls-13" x1="84.39" y1="45.23" x2="84.39" y2="44.02"/><line class="cls-13" x1="84.39" y1="45.23" x2="77.92" y2="41.49"/><line class="cls-13" x1="77.92" y1="40.28" x2="84.39" y2="44.02"/><line class="cls-13" x1="77.92" y1="41.49" x2="77.92" y2="40.28"/><path class="cls-13" d="M77.92,41.49a.49.49,0,0,1-.29-.4"/><path class="cls-13" d="M77.92,39.47a.43.43,0,0,0,0,.81"/><polyline class="cls-13" points="94.02 30.17 82.35 36.91 77.92 39.47"/><path class="cls-13" d="M95.42,30.17a1.57,1.57,0,0,0-1.4,0"/><line class="cls-13" x1="101.9" y1="33.91" x2="95.42" y2="30.17"/><polyline class="cls-13" points="102.19 35.53 102.19 34.34 102.19 34.31"/><line class="cls-13" x1="77.63" y1="41.09" x2="77.63" y2="39.87"/><line class="cls-13" x1="8.8" y1="57.1" x2="8.8" y2="129.88"/><line class="cls-13" x1="8.8" y1="57.1" x2="8.48" y2="56.41"/><line class="cls-13" x1="8.48" y1="129.19" x2="8.48" y2="56.41"/><line class="cls-13" x1="8.8" y1="129.88" x2="8.48" y2="129.19"/><line class="cls-13" x1="8.8" y1="129.88" x2="42.29" y2="124.7"/><line class="cls-13" x1="44.68" y1="51.55" x2="8.8" y2="57.1"/><line class="cls-13" x1="8.48" y1="56.41" x2="44.03" y2="50.91"/><polyline class="cls-13" points="93.4 80.97 75.32 83.81 68.72 84.85"/><polyline class="cls-13" points="93.4 80.97 93.47 80.72 93.7 79.85"/><line class="cls-13" x1="69.02" y1="83.73" x2="93.7" y2="79.85"/><line class="cls-13" x1="68.72" y1="84.85" x2="69.02" y2="83.73"/><polyline class="cls-13" points="68.72 84.85 44.68 70.97 19.7 56.54"/><line class="cls-13" x1="20" y1="55.42" x2="69.02" y2="83.73"/><line class="cls-13" x1="19.7" y1="56.54" x2="20" y2="55.42"/><line class="cls-13" x1="44.68" y1="51.55" x2="20" y2="55.42"/><line class="cls-13" x1="67.44" y1="166.78" x2="89.23" y2="154.2"/><line class="cls-13" x1="67.44" y1="166.78" x2="67.44" y2="167.79"/><line class="cls-13" x1="89.23" y1="155.21" x2="67.44" y2="167.79"/><polyline class="cls-13" points="44.68 123.31 42.28 124.69 18.41 138.48"/><line class="cls-13" x1="18.41" y1="138.48" x2="18.41" y2="139.49"/><line class="cls-13" x1="18.41" y1="138.48" x2="67.44" y2="166.78"/><line class="cls-13" x1="67.44" y1="167.79" x2="18.41" y2="139.49"/><line class="cls-13" x1="90.46" y1="101.22" x2="90.46" y2="174"/><line class="cls-13" x1="90.46" y1="101.22" x2="89.23" y2="101.14"/><polyline class="cls-13" points="89.23 173.92 89.23 155.21 89.23 154.2 89.23 149.04 89.23 147.28 89.23 147.26 89.23 134.72 89.23 133.51 89.23 133.15 89.23 132.95 89.23 131.35 89.23 129.25 89.23 128.53 89.23 128 89.23 127.72 89.23 127.19 89.23 126.47 89.23 125.94 89.23 125.66 89.23 125.13 89.23 124.42 89.23 123.88 89.23 123.6 89.23 123.08 89.23 122.36 89.23 121.58 89.23 114.92 89.23 113.66 89.23 101.14"/><line class="cls-13" x1="90.46" y1="174" x2="89.23" y2="173.92"/><line class="cls-13" x1="90.46" y1="174" x2="94.88" y2="152.96"/><line class="cls-13" x1="94.88" y1="80.18" x2="90.46" y2="101.22"/><polyline class="cls-13" points="89.23 101.14 93.51 80.75 93.7 79.85"/><line class="cls-13" x1="44.68" y1="123.32" x2="44.68" y2="70.97"/><line class="cls-13" x1="44.68" y1="51.55" x2="43.8" y2="51.04"/><line class="cls-13" x1="76.19" y1="33.35" x2="75.32" y2="32.84"/><polyline class="cls-13" points="43.8 51.04 44.03 50.91 44.04 50.91 75.32 32.84"/><line class="cls-13" x1="94.58" y1="80.35" x2="93.7" y2="79.85"/><line class="cls-13" x1="126.09" y1="134.94" x2="94.88" y2="152.96"/><line class="cls-13" x1="126.09" y1="62.16" x2="126.09" y2="134.94"/><line class="cls-13" x1="126.09" y1="62.16" x2="125.22" y2="61.65"/><polyline class="cls-13" points="94.58 80.35 94.88 80.18 126.09 62.16"/><line class="cls-13" x1="75.32" y1="105.63" x2="44.68" y2="123.32"/><line class="cls-13" x1="44.68" y1="123.32" x2="89.23" y2="149.04"/><polyline class="cls-13" points="88.37 56.4 87.5 56.9 84.87 58.42"/><polyline class="cls-13" points="84.87 58.42 82.24 56.9 81.37 56.4"/><line class="cls-13" x1="84.87" y1="55.38" x2="82.24" y2="56.9"/><line class="cls-13" x1="84.87" y1="55.38" x2="84.87" y2="54.37"/><line class="cls-13" x1="81.37" y1="56.39" x2="84.87" y2="54.37"/><line class="cls-13" x1="87.5" y1="56.9" x2="84.87" y2="55.38"/><line class="cls-13" x1="84.87" y1="54.37" x2="88.37" y2="56.39"/><line class="cls-13" x1="125.22" y1="61.65" x2="91.28" y2="42.06"/><line class="cls-13" x1="82.35" y1="36.91" x2="76.19" y2="33.35"/><line class="cls-13" x1="44.68" y1="51.55" x2="93.7" y2="79.85"/><line class="cls-13" x1="93.51" y1="80.75" x2="93.47" y2="80.73"/><line class="cls-13" x1="75.32" y1="105.63" x2="89.23" y2="113.66"/><line class="cls-13" x1="75.32" y1="83.81" x2="75.32" y2="105.63"/><line class="cls-13" x1="89.23" y1="133.14" x2="85.96" y2="135.04"/><polyline class="cls-13" points="85.96 135.04 85.96 134.76 85.96 134.76"/><line class="cls-13" x1="85.96" y1="135.04" x2="70.08" y2="125.87"/><line class="cls-13" x1="70.08" y1="125.87" x2="70.08" y2="125.6"/><polyline class="cls-13" points="69.71 125.38 69.71 124.46 69.71 123.79"/><line class="cls-13" x1="69.71" y1="122.37" x2="69.71" y2="123.79"/><line class="cls-13" x1="78.93" y1="117.05" x2="69.71" y2="122.37"/><line class="cls-13" x1="81.38" y1="117.05" x2="78.93" y2="117.05"/><line class="cls-13" x1="89.23" y1="121.58" x2="81.38" y2="117.05"/><line class="cls-13" x1="86.02" y1="134.8" x2="89.23" y2="132.95"/><line class="cls-13" x1="86.02" y1="133.2" x2="89.23" y2="131.35"/><line class="cls-13" x1="86.02" y1="134.8" x2="86.02" y2="133.2"/><polyline class="cls-13" points="69.71 125.38 70.08 125.6 85.96 134.76 86.02 134.8"/><line class="cls-13" x1="69.71" y1="123.79" x2="86.02" y2="133.2"/><ellipse class="cls-13" cx="81.3" cy="118.6" rx="1.01" ry="0.58"/><path class="cls-13" d="M80.24,120a1.57,1.57,0,0,1-1.43,0,.44.44,0,0,1,0-.83,1.63,1.63,0,0,1,1.43,0A.44.44,0,0,1,80.24,120Z"/><path class="cls-13" d="M78.46,121.07a1.59,1.59,0,0,1-1.44,0,.44.44,0,0,1,0-.83,1.65,1.65,0,0,1,1.44,0A.44.44,0,0,1,78.46,121.07Z"/><ellipse class="cls-13" cx="75.96" cy="121.69" rx="1.01" ry="0.59"/><ellipse class="cls-13" cx="74.18" cy="122.72" rx="1.01" ry="0.59"/><ellipse class="cls-13" cx="72.39" cy="123.74" rx="1.01" ry="0.58"/><path class="cls-13" d="M83.8,120a1.57,1.57,0,0,1-1.43,0,.44.44,0,0,1,0-.83,1.63,1.63,0,0,1,1.43,0A.44.44,0,0,1,83.8,120Z"/><ellipse class="cls-13" cx="81.3" cy="120.66" rx="1.01" ry="0.59"/><ellipse class="cls-13" cx="79.52" cy="121.69" rx="1.01" ry="0.58"/><path class="cls-13" d="M78.46,123.13a1.59,1.59,0,0,1-1.44,0,.44.44,0,0,1,0-.83,1.59,1.59,0,0,1,1.44,0A.44.44,0,0,1,78.46,123.13Z"/><ellipse class="cls-13" cx="75.96" cy="123.74" rx="1.01" ry="0.58"/><ellipse class="cls-13" cx="74.18" cy="124.77" rx="1.01" ry="0.58"/><ellipse class="cls-13" cx="84.87" cy="120.66" rx="1.01" ry="0.59"/><ellipse class="cls-13" cx="83.09" cy="121.69" rx="1.01" ry="0.58"/><ellipse class="cls-13" cx="81.3" cy="122.72" rx="1.01" ry="0.58"/><ellipse class="cls-13" cx="79.52" cy="123.74" rx="1.01" ry="0.58"/><path class="cls-13" d="M78.46,125.19a1.65,1.65,0,0,1-1.44,0,.44.44,0,0,1,0-.83,1.59,1.59,0,0,1,1.44,0A.44.44,0,0,1,78.46,125.19Z"/><ellipse class="cls-13" cx="75.96" cy="125.8" rx="1.01" ry="0.59"/><ellipse class="cls-13" cx="86.65" cy="121.69" rx="1.01" ry="0.59"/><ellipse class="cls-13" cx="84.87" cy="122.72" rx="1.01" ry="0.59"/><ellipse class="cls-13" cx="83.09" cy="123.74" rx="1.01" ry="0.58"/><ellipse class="cls-13" cx="81.3" cy="124.77" rx="1.01" ry="0.58"/><ellipse class="cls-13" cx="79.52" cy="125.8" rx="1.01" ry="0.58"/><path class="cls-13" d="M78.46,127.24a1.59,1.59,0,0,1-1.44,0,.43.43,0,0,1,0-.82,1.59,1.59,0,0,1,1.44,0A.43.43,0,0,1,78.46,127.24Z"/><path class="cls-13" d="M89.15,123.13l-.1.05a1.64,1.64,0,0,1-1.34-.05l-.08-.06c-.34-.25-.26-.62.18-.82a1.57,1.57,0,0,1,1.42.11"/><path class="cls-13" d="M89.23,123.07l-.08.06"/><path class="cls-13" d="M87.21,123.26l.16.07a.44.44,0,0,1,0,.83,1.61,1.61,0,0,1-1.36,0l-.08,0a.44.44,0,0,1,0-.83A1.62,1.62,0,0,1,87.21,123.26Z"/><path class="cls-13" d="M85.51,124.32l.07,0a.44.44,0,0,1,0,.83l-.07,0a1.65,1.65,0,0,1-1.36,0,.44.44,0,0,1,0-.83A1.61,1.61,0,0,1,85.51,124.32Z"/><path class="cls-13" d="M82,129.3a1.57,1.57,0,0,1-1.43,0c-.4-.23-.4-.6,0-.82a1.57,1.57,0,0,1,1.43,0C82.42,128.7,82.42,129.07,82,129.3Z"/><ellipse class="cls-13" cx="83.09" cy="127.86" rx="1.01" ry="0.59"/><path class="cls-13" d="M85.51,126.38l.07,0c.4.23.4.6,0,.82l-.07.05a1.62,1.62,0,0,1-1.36-.05.43.43,0,0,1,0-.82A1.58,1.58,0,0,1,85.51,126.38Z"/><path class="cls-13" d="M87.21,125.31l.16.08a.44.44,0,0,1,0,.83,1.65,1.65,0,0,1-1.36,0l-.08,0a.44.44,0,0,1,0-.83l.08,0A1.66,1.66,0,0,1,87.21,125.31Z"/><path class="cls-13" d="M89.15,125.19l-.1,0a1.61,1.61,0,0,1-1.34-.06l-.08-.05c-.34-.25-.26-.62.18-.82a1.57,1.57,0,0,1,1.42.1"/><path class="cls-13" d="M89.23,125.13l-.08.06"/><path class="cls-13" d="M89.23,123.88a.34.34,0,0,1,0-.28"/><ellipse class="cls-13" cx="79.52" cy="127.86" rx="1.01" ry="0.59"/><ellipse class="cls-13" cx="81.3" cy="126.83" rx="1.01" ry="0.58"/><ellipse class="cls-13" cx="83.09" cy="125.8" rx="1.01" ry="0.58"/><path class="cls-13" d="M89.15,129.3l-.1,0a1.57,1.57,0,0,1-1.34,0l-.08-.05c-.34-.26-.26-.62.18-.82a1.57,1.57,0,0,1,1.42.1"/><path class="cls-13" d="M89.23,129.25l-.08.05"/><path class="cls-13" d="M85.58,131.36a1.57,1.57,0,0,1-1.43,0,.44.44,0,0,1,0-.83,1.63,1.63,0,0,1,1.43,0A.44.44,0,0,1,85.58,131.36Z"/><path class="cls-13" d="M87.21,129.43l.16.08a.43.43,0,0,1,0,.82,1.59,1.59,0,0,1-1.44,0,.43.43,0,0,1,0-.82l.08,0A1.61,1.61,0,0,1,87.21,129.43Z"/><path class="cls-13" d="M89.23,128a.34.34,0,0,1,0-.28"/><ellipse class="cls-13" cx="83.09" cy="129.92" rx="1.01" ry="0.58"/><path class="cls-13" d="M85.51,128.44l.07,0c.4.22.4.59,0,.82l-.07,0a1.58,1.58,0,0,1-1.36,0,.43.43,0,0,1,0-.82A1.58,1.58,0,0,1,85.51,128.44Z"/><path class="cls-13" d="M87.21,127.37l.16.08a.44.44,0,0,1,0,.83,1.65,1.65,0,0,1-1.36,0l-.08,0a.44.44,0,0,1,0-.83l.08,0A1.61,1.61,0,0,1,87.21,127.37Z"/><path class="cls-13" d="M89.15,127.24a.31.31,0,0,1-.1.05,1.57,1.57,0,0,1-1.34-.05l-.08,0c-.34-.25-.26-.62.18-.82a1.57,1.57,0,0,1,1.42.1"/><path class="cls-13" d="M89.23,127.19l-.08,0"/><path class="cls-13" d="M89.23,125.94a.34.34,0,0,1,0-.28"/><line class="cls-13" x1="94.88" y1="152.96" x2="94.88" y2="80.18"/></g><line class="cls-14" x1="84.87" y1="46.33" x2="84.87" y2="57.86"/><text class="cls-15" transform="translate(140.86 39.37)">sma<tspan class="cls-16" x="13.7" y="0">r</tspan><tspan x="16.5" y="0">t phone</tspan></text><text class="cls-15" transform="translate(140.86 104.77)"><tspan class="cls-17">w</tspan><tspan x="5.81" y="0">ell pl</tspan><tspan class="cls-18" x="21.73" y="0">a</tspan><tspan class="cls-19" x="25.55" y="0">t</tspan><tspan x="28.15" y="0">e</tspan></text><text class="cls-15" transform="translate(140.86 72.07)">ca<tspan class="cls-20" x="7.44" y="0">r</tspan><tspan class="cls-21" x="9.98" y="0">dboa</tspan><tspan class="cls-20" x="27.29" y="0">r</tspan><tspan class="cls-21" x="29.82" y="0">d b</tspan><tspan class="cls-22" x="40.58" y="0">o</tspan><tspan x="44.86" y="0">x</tspan></text><text class="cls-15" transform="translate(140.86 137.46)">paper</text></svg>